<?xml version="1.0" encoding="utf-8"?>
<!-- Generator: Adobe Illustrator 16.0.0, SVG Export Plug-In . SVG Version: 6.00 Build 0)  -->
<!DOCTYPE svg PUBLIC "-//W3C//DTD SVG 1.1//EN" "http://www.w3.org/Graphics/SVG/1.1/DTD/svg11.dtd">
<svg version="1.1" id="icons" image-rendering="auto"
	 xmlns="http://www.w3.org/2000/svg" xmlns:xlink="http://www.w3.org/1999/xlink" x="0px" y="0px" width="50px" height="50px"
	 viewBox="100 100 50 50" enable-background="new 100 100 50 50" xml:space="preserve">
<path fill="#FFFFFF" d="M150,125.092c0-13.807-11.192-25-25-25c-13.807,0-25,11.193-25,25c0,11.725,8.071,21.563,18.96,24.264
	v-16.624h-5.155v-7.64h5.155V121.8c0-8.509,3.851-12.453,12.206-12.453c1.583,0,4.316,0.31,5.435,0.621v6.925
	c-0.591-0.063-1.615-0.093-2.889-0.093c-4.1,0-5.683,1.553-5.683,5.59v2.702h8.165l-1.402,7.64h-6.763v17.177
	C140.407,148.413,150,137.874,150,125.092"/>
</svg>
