<?xml version="1.0" encoding="utf-8"?>
<!-- Generator: Adobe Illustrator 16.0.0, SVG Export Plug-In . SVG Version: 6.00 Build 0)  -->
<!DOCTYPE svg PUBLIC "-//W3C//DTD SVG 1.1//EN" "http://www.w3.org/Graphics/SVG/1.1/DTD/svg11.dtd">
<svg version="1.1" id="Layer_1" xmlns="http://www.w3.org/2000/svg" xmlns:xlink="http://www.w3.org/1999/xlink" x="0px" y="0px"
	 width="50px" height="50px" viewBox="0 0 50 50" enable-background="new 0 0 50 50" xml:space="preserve">
<path fill="#FFFFFF" d="M14.646,0.175c-2.66,0.125-4.477,0.55-6.064,1.174c-1.644,0.64-3.037,1.5-4.422,2.891
	c-1.386,1.391-2.24,2.785-2.875,4.431c-0.616,1.592-1.033,3.41-1.15,6.071c-0.117,2.661-0.143,3.517-0.13,10.306
	c0.013,6.789,0.043,7.64,0.172,10.308c0.127,2.659,0.55,4.475,1.174,6.063c0.642,1.644,1.5,3.036,2.892,4.423
	c1.391,1.387,2.784,2.238,4.434,2.875c1.59,0.614,3.409,1.033,6.07,1.15c2.661,0.115,3.518,0.143,10.304,0.13
	c6.787-0.013,7.642-0.043,10.309-0.169c2.666-0.127,4.473-0.553,6.062-1.174c1.644-0.644,3.037-1.5,4.423-2.893
	c1.385-1.392,2.238-2.787,2.873-4.434c0.617-1.59,1.035-3.408,1.15-6.067c0.117-2.669,0.145-3.521,0.131-10.309
	c-0.013-6.788-0.043-7.639-0.17-10.305c-0.126-2.666-0.55-4.477-1.174-6.066c-0.642-1.644-1.5-3.035-2.891-4.422
	c-1.391-1.388-2.787-2.24-4.434-2.874c-1.591-0.616-3.408-1.035-6.069-1.15C32.598,0.02,31.742-0.01,24.952,0.003
	C18.163,0.016,17.313,0.045,14.646,0.175 M14.938,45.369c-2.438-0.105-3.761-0.512-4.643-0.85c-1.168-0.451-2-0.994-2.879-1.865
	c-0.879-0.87-1.419-1.705-1.875-2.871c-0.343-0.882-0.755-2.203-0.869-4.641c-0.124-2.635-0.15-3.426-0.165-10.101
	c-0.014-6.674,0.011-7.464,0.126-10.1c0.104-2.436,0.512-3.76,0.85-4.642c0.45-1.169,0.992-2,1.865-2.878s1.705-1.419,2.872-1.875
	c0.881-0.344,2.203-0.753,4.639-0.869c2.637-0.125,3.427-0.15,10.1-0.164c6.673-0.015,7.465,0.01,10.103,0.126
	c2.436,0.106,3.762,0.509,4.642,0.85c1.169,0.45,2,0.99,2.878,1.864c0.879,0.874,1.42,1.704,1.877,2.873
	c0.344,0.878,0.753,2.2,0.868,4.638c0.126,2.636,0.153,3.427,0.166,10.1c0.012,6.673-0.012,7.466-0.127,10.101
	c-0.106,2.438-0.511,3.762-0.851,4.645c-0.449,1.167-0.992,2-1.865,2.877c-0.873,0.879-1.705,1.42-2.871,1.875
	c-0.881,0.344-2.203,0.754-4.639,0.87c-2.637,0.124-3.426,0.149-10.102,0.165C18.362,45.51,17.575,45.482,14.938,45.369
	 M35.318,11.639c0.003,1.657,1.348,2.998,3.006,2.995c1.656-0.002,2.997-1.348,2.994-3.005c-0.002-1.657-1.348-2.998-3.005-2.995
	c-0.001,0-0.001,0-0.001,0C36.656,8.637,35.316,9.982,35.318,11.639 M12.164,25.025c0.014,7.09,5.772,12.825,12.86,12.811
	s12.828-5.771,12.814-12.861c-0.014-7.09-5.773-12.826-12.863-12.812C17.886,12.177,12.15,17.936,12.164,25.025 M16.667,25.016
	c-0.009-4.603,3.714-8.341,8.317-8.35s8.341,3.714,8.351,8.317c0.009,4.603-3.715,8.341-8.317,8.35
	c-4.602,0.01-8.34-3.713-8.35-8.315C16.667,25.018,16.667,25.017,16.667,25.016"/>
</svg>
